{"asset":{"version":"2.0","generator":"Unity 2022.3.36f1 glTFast 6.8.0"},"nodes":[{"name":"Directional Light","children":[34],"translation":[0,3,0],"rotation":[0.408217877,0.234569684,-0.109381631,0.8754261]},{"name":"Global Volume"},{"name":"Plane","mesh":0,"scale":[1.6442132,1.6442132,1.6442132]},{"name":"Cube","mesh":1,"translation":[-3.36,0.36,6.77],"scale":[0.69594,0.69594,0.69594]},{"name":"Cube (1)","mesh":1,"translation":[-2.45,0.36,5.27],"scale":[0.69594,0.69594,0.69594]},{"name":"Cube (2)","mesh":1,"translation":[-2.45,0.36,-1.67],"scale":[0.69594,0.69594,0.69594]},{"name":"Cube (6)","mesh":1,"translation":[0.07,0.36,-4.28],"scale":[0.69594,0.69594,0.69594]},{"name":"Cube (7)","mesh":1,"translation":[-0.86,0.36,-4.28],"scale":[0.69594,0.69594,0.69594]},{"name":"Cube (8)","mesh":1,"translation":[-0.45,1.09,-4.28],"scale":[0.69594,0.69594,0.69594]},{"name":"Cube (3)","mesh":1,"translation":[4.18,0.36,-1.67],"scale":[0.69594,0.69594,0.69594]},{"name":"Cube (10)","mesh":1,"translation":[0.72,0.36,-1.67],"scale":[0.69594,0.69594,0.69594]},{"name":"Cube (11)","mesh":1,"translation":[2.32,0.36,0.96],"scale":[0.69594,0.69594,0.69594]},{"name":"Cube (12)","mesh":1,"translation":[2.32,1.07,0.97],"scale":[0.69594,0.69594,0.69594]},{"name":"Cube (13)","mesh":1,"translation":[3.19,0.36,1.74],"scale":[0.69594,0.69594,0.69594]},{"name":"Cube (14)","mesh":1,"translation":[7.42,0.36,-5.97],"scale":[0.69594,0.69594,0.69594]},{"name":"Cube (15)","mesh":1,"translation":[7.42,0.36,-4.81],"scale":[0.69594,0.69594,0.69594]},{"name":"Cube (16)","mesh":1,"translation":[7.42,0.36,-1.87],"scale":[0.69594,0.69594,0.69594]},{"name":"Cube (17)","mesh":1,"translation":[7.42,0.36,-0.88],"scale":[0.69594,0.69594,0.69594]},{"name":"Cube (18)","mesh":1,"translation":[7.42,0.36,0.06],"scale":[0.69594,0.69594,0.69594]},{"name":"Cube (4)","mesh":1,"translation":[4.18,1.07,-1.67],"scale":[0.69594,0.69594,0.69594]},{"name":"Cube (9)","mesh":1,"translation":[0.7,1.07,-1.67],"scale":[0.69594,0.69594,0.69594]},{"name":"Cube (5)","mesh":1,"translation":[4.18,0.39,3.1],"scale":[0.69594,0.69594,0.69594]},{"name":"Stone 1","mesh":2,"translation":[3.07,0.3284,-2.51],"rotation":[0.140844077,0,0,0.9900318],"scale":[0.71716,0.643579364,0.663516462]},{"name":"Stone 4","mesh":2,"translation":[6.45,0.3284,5.72],"rotation":[0.140844077,0,0,0.9900318],"scale":[0.71716,0.643579364,0.663516462]},{"name":"Stone 2","mesh":2,"translation":[3.15,0.3284,1.02],"rotation":[0.140844077,0,0,0.9900318],"scale":[0.71716,0.643579364,0.663516462]},{"name":"Stone 3","mesh":2,"translation":[0.83,0.3284,-0.15],"rotation":[0.140844077,0,0,0.9900318],"scale":[0.71716,0.643579364,0.663516462]},{"name":"head","mesh":5,"translation":[0,1.33,0],"scale":[0.77373,0.77373,0.77373]},{"name":"Camera","children":[35],"translation":[0.02,1.33,-0.01],"rotation":[0,0.6972495,0,0.7168286],"scale":[0.754546165,0.754546165,0.754546165]},{"name":"Player","children":[26,27],"mesh":3,"translation":[-3.1763947,1.23,0.158969745],"rotation":[0,-0.792580247,0,-0.6097677],"scale":[1.3253,1.3253,1.3253]},{"name":"log","mesh":4,"translation":[-0.82,0.46,0.3],"rotation":[0.7145046,0,0,0.6996307],"scale":[1,0.99999994,0.99999994]},{"name":"log 3","mesh":4,"translation":[6.13,0.46,1.76],"rotation":[0.7145046,0,0,0.6996307],"scale":[1,0.99999994,0.99999994]},{"name":"log 2","mesh":4,"translation":[1.35,0.46,7.17],"rotation":[0.5131522,0.486833751,-0.49718374,0.50247]},{"name":"log 4","mesh":4,"translation":[3.42,0.46,-7.3],"rotation":[0.5131522,0.486833751,-0.49718374,0.50247]},{"name":"log 5","mesh":4,"translation":[-6,0.46,-6.42],"rotation":[0.221101835,0.6652904,-0.679434,0.216499627],"scale":[1.00000012,1.00000012,1]},{"name":"Directional Light_Orientation","rotation":[0,-1,0,-4.371139E-08],"extensions":{"KHR_lights_punctual":{"light":0}}},{"name":"Camera_Orientation","rotation":[0,-1,0,-4.371139E-08],"camera":0}],"extensionsRequired":["KHR_lights_punctual"],"extensionsUsed":["KHR_lights_punctual"],"buffers":[{"uri":"woods.bin","byteLength":83072}],"bufferViews":[{"buffer":0,"byteLength":1200,"target":34963},{"buffer":0,"byteLength":72,"byteOffset":1200,"target":34963},{"buffer":0,"byteLength":4608,"byteOffset":1272,"target":34963},{"buffer":0,"byteLength":4992,"byteOffset":5880,"target":34963},{"buffer":0,"byteLength":480,"byteOffset":10872,"target":34963},{"buffer":0,"byteLength":5808,"byteOffset":11352,"byteStride":48,"target":34962},{"buffer":0,"byteLength":28840,"byteOffset":17160,"byteStride":56,"target":34962},{"buffer":0,"byteLength":30800,"byteOffset":46000,"byteStride":56,"target":34962},{"buffer":0,"byteLength":4928,"byteOffset":76800,"byteStride":56,"target":34962},{"buffer":0,"byteLength":1344,"byteOffset":81728,"byteStride":56,"target":34962}],"accessors":[{"bufferView":5,"componentType":5126,"count":121,"type":"VEC3","max":[5,1.110223E-16,5],"min":[-5,-1.110223E-16,-5]},{"bufferView":5,"componentType":5126,"count":121,"type":"VEC3","byteOffset":12},{"bufferView":5,"componentType":5126,"count":121,"type":"VEC4","byteOffset":24},{"bufferView":5,"componentType":5126,"count":121,"type":"VEC2","byteOffset":40},{"bufferView":0,"componentType":5123,"count":600,"type":"SCALAR"},{"bufferView":9,"componentType":5126,"count":24,"type":"VEC3","max":[0.5,0.5,0.5],"min":[-0.5,-0.5,-0.5]},{"bufferView":9,"componentType":5126,"count":24,"type":"VEC3","byteOffset":12},{"bufferView":9,"componentType":5126,"count":24,"type":"VEC4","byteOffset":24},{"bufferView":9,"componentType":5126,"count":24,"type":"VEC2","byteOffset":40},{"bufferView":9,"componentType":5126,"count":24,"type":"VEC2","byteOffset":48},{"bufferView":1,"componentType":5123,"count":36,"type":"SCALAR"},{"bufferView":6,"componentType":5126,"count":515,"type":"VEC3","max":[0.5,0.5,0.5],"min":[-0.5,-0.5,-0.5]},{"bufferView":6,"componentType":5126,"count":515,"type":"VEC3","byteOffset":12},{"bufferView":6,"componentType":5126,"count":515,"type":"VEC4","byteOffset":24},{"bufferView":6,"componentType":5126,"count":515,"type":"VEC2","byteOffset":40},{"bufferView":6,"componentType":5126,"count":515,"type":"VEC2","byteOffset":48},{"bufferView":2,"componentType":5123,"count":2304,"type":"SCALAR"},{"bufferView":7,"componentType":5126,"count":550,"type":"VEC3","max":[0.5,1,0.5],"min":[-0.5,-1,-0.5]},{"bufferView":7,"componentType":5126,"count":550,"type":"VEC3","byteOffset":12},{"bufferView":7,"componentType":5126,"count":550,"type":"VEC4","byteOffset":24},{"bufferView":7,"componentType":5126,"count":550,"type":"VEC2","byteOffset":40},{"bufferView":7,"componentType":5126,"count":550,"type":"VEC2","byteOffset":48},{"bufferView":3,"componentType":5123,"count":2496,"type":"SCALAR"},{"bufferView":8,"componentType":5126,"count":88,"type":"VEC3","max":[0.5,1,0.5],"min":[-0.5000001,-1,-0.500000238]},{"bufferView":8,"componentType":5126,"count":88,"type":"VEC3","byteOffset":12},{"bufferView":8,"componentType":5126,"count":88,"type":"VEC4","byteOffset":24},{"bufferView":8,"componentType":5126,"count":88,"type":"VEC2","byteOffset":40},{"bufferView":8,"componentType":5126,"count":88,"type":"VEC2","byteOffset":48},{"bufferView":4,"componentType":5123,"count":240,"type":"SCALAR"}],"cameras":[{"type":"perspective","perspective":{"yfov":1.04719758,"zfar":1000,"znear":0.3}}],"images":[{"name":"grass.jpg","uri":"grass.jpg","mimeType":"image/jpeg"},{"name":"dirt.jpg","uri":"dirt.jpg","mimeType":"image/jpeg"},{"name":"stone.jpg","uri":"stone.jpg","mimeType":"image/jpeg"},{"name":"wood bark.jpg","uri":"wood bark.jpg","mimeType":"image/jpeg"}],"materials":[{"name":"grass 1","pbrMetallicRoughness":{"metallicFactor":0,"roughnessFactor":0.5,"baseColorTexture":{"index":0}}},{"name":"dirt","pbrMetallicRoughness":{"metallicFactor":0,"roughnessFactor":0.5,"baseColorTexture":{"index":1}}},{"name":"stone","pbrMetallicRoughness":{"metallicFactor":0,"roughnessFactor":0.5,"baseColorTexture":{"index":2}}},{"name":"New Material","pbrMetallicRoughness":{"baseColorFactor":[1,0.7835379,0.6038274,1],"metallicFactor":0.25}},{"name":"New Material 1","pbrMetallicRoughness":{"baseColorFactor":[1,0.181482092,0.00474347733,1],"metallicFactor":0,"roughnessFactor":0}},{"name":"wood bark","pbrMetallicRoughness":{"metallicFactor":0,"roughnessFactor":0.5,"baseColorTexture":{"index":3}}}],"meshes":[{"name":"Plane","primitives":[{"attributes":{"POSITION":0,"NORMAL":1,"TANGENT":2,"TEXCOORD_0":3},"indices":4,"material":0}]},{"name":"Cube","primitives":[{"attributes":{"POSITION":5,"NORMAL":6,"TANGENT":7,"TEXCOORD_0":8,"TEXCOORD_1":9},"indices":10,"material":1}]},{"name":"Sphere","primitives":[{"attributes":{"POSITION":11,"NORMAL":12,"TANGENT":13,"TEXCOORD_0":14,"TEXCOORD_1":15},"indices":16,"material":2}]},{"name":"Capsule","primitives":[{"attributes":{"POSITION":17,"NORMAL":18,"TANGENT":19,"TEXCOORD_0":20,"TEXCOORD_1":21},"indices":22,"material":4}]},{"name":"Cylinder","primitives":[{"attributes":{"POSITION":23,"NORMAL":24,"TANGENT":25,"TEXCOORD_0":26,"TEXCOORD_1":27},"indices":28,"material":5}]},{"name":"Sphere","primitives":[{"attributes":{"POSITION":11,"NORMAL":12,"TANGENT":13,"TEXCOORD_0":14,"TEXCOORD_1":15},"indices":16,"material":3}]}],"scene":0,"scenes":[{"name":"SampleScene","nodes":[0,1,2,3,4,5,6,7,8,9,10,11,12,13,14,15,16,17,18,19,20,21,22,23,24,25,28,29,30,31,32,33]}],"textures":[{"source":0},{"source":1},{"source":2},{"source":3}],"extensions":{"KHR_lights_punctual":{"lights":[{"type":"directional","name":"Directional Light","intensity":2}]}}}